<?xml version="1.0" encoding="UTF-8" standalone="no"?>
<svg
   xmlns:dc="http://purl.org/dc/elements/1.1/"
   xmlns:cc="http://creativecommons.org/ns#"
   xmlns:rdf="http://www.w3.org/1999/02/22-rdf-syntax-ns#"
   xmlns:svg="http://www.w3.org/2000/svg"
   xmlns="http://www.w3.org/2000/svg"
   id="svg5088"
   version="1.1"
   viewBox="0 0 18.59851 15.874748"
   height="15.87475mm"
   width="18.598511mm">
  <defs
     id="defs5082">
    <clipPath
       id="clipPath26"
       clipPathUnits="userSpaceOnUse">
      <path
         id="path24"
         d="m 46.87,357.72 h 57.62 v -61.3 H 46.87 Z" />
    </clipPath>
    <clipPath
       id="clipPath68"
       clipPathUnits="userSpaceOnUse">
      <path
         id="path66"
         d="m 134.76,353.97 h 53.44 v -53.8 h -53.44 z" />
    </clipPath>
    <clipPath
       id="clipPath92"
       clipPathUnits="userSpaceOnUse">
      <path
         id="path90"
         d="m 223.45,354.72 h 47.18 v -55.29 h -47.18 z" />
    </clipPath>
    <clipPath
       id="clipPath340"
       clipPathUnits="userSpaceOnUse">
      <path
         id="path338"
         d="m 297.63,333.83 h 56.08 V 295.5 h -56.08 z" />
    </clipPath>
    <clipPath
       id="clipPath220"
       clipPathUnits="userSpaceOnUse">
      <path
         id="path218"
         d="M 378.05,353.71 H 427.8 V 300.43 H 378.05 Z" />
    </clipPath>
    <clipPath
       id="clipPath1224"
       clipPathUnits="userSpaceOnUse">
      <path
         id="path1222"
         d="m 450.12,353.2 h 52.25 v -52.25 h -52.25 z" />
    </clipPath>
    <clipPath
       id="clipPath904"
       clipPathUnits="userSpaceOnUse">
      <path
         id="path902"
         d="m 520.935,347.63 h 55.64 v -41.12 h -55.64 z" />
    </clipPath>
    <clipPath
       id="clipPath1512"
       clipPathUnits="userSpaceOnUse">
      <path
         id="path1510"
         d="m 590.789,353.968 h 54.478 v -53.795 h -54.478 z" />
    </clipPath>
    <clipPath
       id="clipPath384"
       clipPathUnits="userSpaceOnUse">
      <path
         id="path382"
         d="M 46.97,277.28 H 104.4 V 231.61 H 46.97 Z" />
    </clipPath>
    <clipPath
       id="clipPath312"
       clipPathUnits="userSpaceOnUse">
      <path
         id="path310"
         d="m 127.4,282.06 h 68.16 V 240.85 H 127.4 Z" />
    </clipPath>
    <clipPath
       id="clipPath544"
       clipPathUnits="userSpaceOnUse">
      <path
         id="path542"
         d="m 208.18,291.795 h 77.715 V 231.114 H 208.18 Z" />
    </clipPath>
    <clipPath
       id="clipPath144"
       clipPathUnits="userSpaceOnUse">
      <path
         id="path142"
         d="m 309.62,285.63 h 32.112 V 237.28 H 309.62 Z" />
    </clipPath>
    <clipPath
       id="clipPath988"
       clipPathUnits="userSpaceOnUse">
      <path
         id="path986"
         d="m 381.1,282.73 h 43.66 V 240.17 H 381.1 Z" />
    </clipPath>
    <clipPath
       id="clipPath790"
       clipPathUnits="userSpaceOnUse">
      <path
         id="path788"
         d="m 453.3,278.98 h 46.82 V 242.6 H 453.3 Z" />
    </clipPath>
    <clipPath
       id="clipPath1144"
       clipPathUnits="userSpaceOnUse">
      <path
         id="path1142"
         d="m 523.77,273.9 h 51.05 v -26.22 h -51.05 z" />
    </clipPath>
    <clipPath
       id="clipPath1390"
       clipPathUnits="userSpaceOnUse">
      <path
         id="path1388"
         d="m 595.56,285.6 h 44.93 v -45.9 h -44.93 z" />
    </clipPath>
    <clipPath
       id="clipPath1052"
       clipPathUnits="userSpaceOnUse">
      <path
         id="path1050"
         d="M 54.2225,216.55 H 97.1436 V 173.66 H 54.2225 Z" />
    </clipPath>
    <clipPath
       id="clipPath762"
       clipPathUnits="userSpaceOnUse">
      <path
         id="path760"
         d="M 133.67,214.23 H 189.3 V 175.98 H 133.67 Z" />
    </clipPath>
    <clipPath
       id="clipPath276"
       clipPathUnits="userSpaceOnUse">
      <path
         id="path274"
         d="m 230.14,218.955 h 33.8 V 165.25 h -33.8 z" />
    </clipPath>
    <clipPath
       id="clipPath628"
       clipPathUnits="userSpaceOnUse">
      <path
         id="path626"
         d="m 297.63,227.63 h 56.09 v -71.05 h -56.09 z" />
    </clipPath>
    <clipPath
       id="clipPath420"
       clipPathUnits="userSpaceOnUse">
      <path
         id="path418"
         d="m 378.62,220.24 h 48.61 v -54.37 h -48.61 z" />
    </clipPath>
    <clipPath
       id="clipPath1072"
       clipPathUnits="userSpaceOnUse">
      <path
         id="path1070"
         d="m 447.51,212.1 h 58.4 v -44.61 h -58.4 z" />
    </clipPath>
    <clipPath
       id="clipPath1188"
       clipPathUnits="userSpaceOnUse">
      <path
         id="path1186"
         d="m 533.95,216.9 h 30.68 v -46.91 h -30.68 z" />
    </clipPath>
    <clipPath
       id="clipPath1478"
       clipPathUnits="userSpaceOnUse">
      <path
         id="path1476"
         d="M 593.15,205.25 H 642.9 V 175.81 H 593.15 Z" />
    </clipPath>
    <clipPath
       id="clipPath696"
       clipPathUnits="userSpaceOnUse">
      <path
         id="path694"
         d="m 41.9,158.92 h 63.56 V 108.56 H 41.9 Z" />
    </clipPath>
    <clipPath
       id="clipPath834"
       clipPathUnits="userSpaceOnUse">
      <path
         id="path832"
         d="m 128.24,150.16 h 66.48 v -41.6 h -66.48 z" />
    </clipPath>
    <clipPath
       id="clipPath870"
       clipPathUnits="userSpaceOnUse">
      <path
         id="path868"
         d="m 222.85,145.194 h 48.38 V 108.56 h -48.38 z" />
    </clipPath>
    <clipPath
       id="clipPath946"
       clipPathUnits="userSpaceOnUse">
      <path
         id="path944"
         d="M 303.15,145.89 H 348.2 V 108.56 H 303.15 Z" />
    </clipPath>
  </defs>
  <metadata
     id="metadata5085">
    <rdf:RDF>
      <cc:Work
         rdf:about="">
        <dc:format>image/svg+xml</dc:format>
        <dc:type
           rdf:resource="http://purl.org/dc/dcmitype/StillImage" />
        <dc:title></dc:title>
      </cc:Work>
    </rdf:RDF>
  </metadata>
  <g
     transform="translate(-87.75666,-87.609044)"
     id="layer1">
    <g
       id="g9452"
       transform="matrix(0.35277777,0,0,-0.35277777,-17.835073,140.42843)">
      <g
         id="g940">
        <g
           id="g942" />
        <g
           id="g962">
          <g
             clip-path="url(#clipPath946)"
             id="g960">
            <path
               d="m 328.8,133.43 h -6.44 v -13.25 h 6.44 z m 3.23,2.15 v -26.12 c 0,-0.5 -0.46,-0.9 -1.02,-0.9 h -10.87 c -0.56,0 -1.02,0.4 -1.02,0.9 v 26.12 c 0,0.49 0.46,0.89 1.02,0.89 h 10.87 c 0.56,0 1.02,-0.4 1.02,-0.89"
               style="fill:#ff9e00;fill-opacity:1;fill-rule:nonzero;stroke:none"
               id="path948" />
            <path
               d="m 312.57,127.97 h -5.94 v -6.08 h 5.94 z m 3.48,2.22 v -20.73 c 0,-0.5 -0.45,-0.9 -1.02,-0.9 h -10.86 c -0.56,0 -1.02,0.4 -1.02,0.9 v 20.73 c 0,0.49 0.46,0.9 1.02,0.9 h 10.86 c 0.56,0 1.02,-0.41 1.02,-0.9"
               style="fill:#6c9814;fill-opacity:1;fill-rule:nonzero;stroke:none"
               id="path950" />
            <path
               d="m 344.82,142.38 h -6.14 v -15.63 h 6.14 z m 3.38,2.61 v -35.53 c 0,-0.5 -0.45,-0.9 -1.02,-0.9 h -10.86 c -0.57,0 -1.02,0.4 -1.02,0.9 v 35.53 c 0,0.5 0.45,0.9 1.02,0.9 h 10.86 c 0.57,0 1.02,-0.4 1.02,-0.9"
               style="fill:#00607f;fill-opacity:1;fill-rule:nonzero;stroke:none"
               id="path952" />
            <path
               d="m 344.82,126.75 h -6.14 v 15.63 h 6.14 z"
               style="fill:#ffbb00;fill-opacity:1;fill-rule:nonzero;stroke:none"
               id="path954" />
            <path
               d="m 328.8,120.18 h -6.44 v 13.25 h 6.44 z"
               style="fill:#ffbb00;fill-opacity:1;fill-rule:nonzero;stroke:none"
               id="path956" />
            <path
               d="m 312.57,121.89 h -5.94 v 6.08 h 5.94 z"
               style="fill:#ffbb00;fill-opacity:1;fill-rule:nonzero;stroke:none"
               id="path958" />
          </g>
        </g>
      </g>
      <path
         d="m 312.57,121.89 h -5.94 v 6.08 h 5.94 z"
         style="fill:none;stroke:#141414;stroke-width:2;stroke-linecap:round;stroke-linejoin:round;stroke-miterlimit:10;stroke-dasharray:none;stroke-opacity:1"
         id="path964" />
      <g
         id="g966"
         transform="translate(315.0298,131.0898)">
        <path
           d="m 0,0 h -10.86 c -0.56,0 -1.02,-0.41 -1.02,-0.899 V -21.63 c 0,-0.5 0.46,-0.9 1.02,-0.9 H 0 c 0.57,0 1.02,0.4 1.02,0.9 V -0.899 C 1.02,-0.41 0.56,0 0,0 Z"
           style="fill:none;stroke:#141414;stroke-width:2;stroke-linecap:round;stroke-linejoin:round;stroke-miterlimit:10;stroke-dasharray:none;stroke-opacity:1"
           id="path968" />
      </g>
      <path
         d="m 328.8,120.18 h -6.44 v 13.25 h 6.44 z"
         style="fill:none;stroke:#141414;stroke-width:2;stroke-linecap:round;stroke-linejoin:round;stroke-miterlimit:10;stroke-dasharray:none;stroke-opacity:1"
         id="path970" />
      <g
         id="g972"
         transform="translate(331.0098,136.4697)">
        <path
           d="m 0,0 h -10.87 c -0.56,0 -1.02,-0.399 -1.02,-0.89 v -26.12 c 0,-0.5 0.46,-0.9 1.02,-0.9 H 0 c 0.56,0 1.02,0.4 1.02,0.9 V -0.89 C 1.02,-0.399 0.56,0 0,0 Z"
           style="fill:none;stroke:#141414;stroke-width:2;stroke-linecap:round;stroke-linejoin:round;stroke-miterlimit:10;stroke-dasharray:none;stroke-opacity:1"
           id="path974" />
      </g>
      <path
         d="m 344.82,126.75 h -6.14 v 15.63 h 6.14 z"
         style="fill:none;stroke:#141414;stroke-width:2;stroke-linecap:round;stroke-linejoin:round;stroke-miterlimit:10;stroke-dasharray:none;stroke-opacity:1"
         id="path976" />
      <g
         id="g978"
         transform="translate(347.1797,145.8896)">
        <path
           d="m 0,0 h -10.86 c -0.57,0 -1.02,-0.399 -1.02,-0.899 V -36.43 c 0,-0.5 0.45,-0.9 1.02,-0.9 H 0 c 0.57,0 1.021,0.4 1.021,0.9 V -0.899 C 1.021,-0.399 0.57,0 0,0 Z"
           style="fill:none;stroke:#141414;stroke-width:2;stroke-linecap:round;stroke-linejoin:round;stroke-miterlimit:10;stroke-dasharray:none;stroke-opacity:1"
           id="path980" />
      </g>
    </g>
  </g>
</svg>
